# File created by Blade
# Date/Time:  Wed Jan 21 14:28:11 2015
# Frame Rate: 120.000 fps
#------------------------------------------------------
:FULLY-SPECIFIED
:DEGREES
164
root 18.800509 35.464431 -20.931700 -173.856110 -1.500880 -178.229925
Spine -12.192881 -0.269097 1.471655
Head 7.337895 -0.094000 -0.380488
LeftShoulder -15.828825 -9.944235 -0.385728
LeftArm -41.179064 26.462168 -107.773985
LeftForeArm -6.554041 -0.000000 6.003174
LeftHand -5.356963 -0.000000 -37.378386
LeftHandThumb1 -26.253704 0.000000 33.147579
RightShoulder -16.133136 -24.509478 9.564501
RightArm 0.274050 -33.709327 85.336710
RightForeArm -26.770419 -0.000000 11.345945
RightHand 1.473096 -0.000000 37.572149
RightHandThumb1 -24.326973 -0.000000 -32.862282
LeftUpLeg 1.565103 9.289199 2.884270
LeftLeg -6.231024 -0.000000 0.000000
LeftFoot -20.222002 27.877094 -10.878411
LeftToeBase 28.018716 -0.000000 -0.000000
RightUpLeg -0.669495 -12.150721 0.004156
RightLeg -2.351927 -0.000000 0.000000
RightFoot -19.998980 -21.013253 15.665339
RightToeBase 25.883992 -0.000000 -0.000000
165
root 18.802295 35.464168 -20.936689 -173.870946 -1.520107 -178.220094
Spine -12.183992 -0.331285 1.484845
Head 7.361595 -0.058192 -0.377673
LeftShoulder -15.773028 -10.001960 -0.361353
LeftArm -41.248365 26.466520 -107.890647
LeftForeArm -6.553972 0.000000 5.606667
LeftHand -5.309933 -0.000000 -37.398949
LeftHandThumb1 -26.253704 0.000000 33.147579
RightShoulder -16.097030 -24.347514 9.566999
RightArm 0.040194 -34.281955 85.497303
RightForeArm -26.958668 -0.000000 11.103420
RightHand 1.447984 0.000000 37.563769
RightHandThumb1 -24.326973 -0.000000 -32.862282
LeftUpLeg 1.570324 9.277009 2.903882
LeftLeg -6.206172 -0.000000 0.000000
LeftFoot -20.254533 27.908347 -10.788844
LeftToeBase 28.254007 -0.000000 -0.000000
RightUpLeg -0.655318 -12.175667 0.016667
RightLeg -2.331472 -0.000000 0.000000
RightFoot -20.014218 -21.005958 15.669885
RightToeBase 25.906748 -0.000000 -0.000000
166
root 18.802361 35.463998 -20.943825 -173.890245 -1.530755 -178.214664
Spine -12.181016 -0.388646 1.505050
Head 7.400333 -0.031396 -0.388465
LeftShoulder -15.694940 -10.105411 -0.359463
LeftArm -41.374943 26.303654 -107.865628
LeftForeArm -6.691436 -0.000000 5.294244
LeftHand -5.442481 0.000000 -37.375568
LeftHandThumb1 -26.253704 0.000000 33.147579
RightShoulder -16.047671 -24.205681 9.561710
RightArm -0.252817 -34.612052 85.688485
RightForeArm -27.255687 -0.000000 10.938297
RightHand 1.413967 0.000000 37.885238
RightHandThumb1 -24.326973 -0.000000 -32.862282
LeftUpLeg 1.596071 9.260152 2.911734
LeftLeg -6.197457 -0.000000 0.000000
LeftFoot -20.261855 27.880138 -10.887797
LeftToeBase 28.023818 -0.000000 -0.000000
RightUpLeg -0.643929 -12.225737 0.020655
RightLeg -2.295650 -0.000000 0.000000
RightFoot -20.029229 -20.981572 15.672076
RightToeBase 25.866802 -0.000000 -0.000000
167
root 18.802666 35.463398 -20.949061 -173.890733 -1.531441 -178.209843
Spine -12.193752 -0.443268 1.518815
Head 7.441034 -0.000243 -0.381095
LeftShoulder -15.639586 -10.185199 -0.372604
LeftArm -41.507865 26.103128 -107.707744
LeftForeArm -7.116159 -0.000000 5.046369
LeftHand -5.578663 -0.000000 -37.523768
LeftHandThumb1 -26.253704 0.000000 33.147579
RightShoulder -15.995478 -24.083043 9.503047
RightArm -0.575978 -34.688802 85.886766
RightForeArm -27.351249 0.000000 10.808104
RightHand 1.559414 -0.000000 37.715130
RightHandThumb1 -24.326973 -0.000000 -32.862282
LeftUpLeg 1.592263 9.264895 2.917997
LeftLeg -6.168734 -0.000000 0.000000
LeftFoot -20.259154 27.872080 -10.860751
LeftToeBase 27.949169 -0.000000 -0.000000
RightUpLeg -0.646476 -12.200551 0.022693
RightLeg -2.271001 -0.000000 0.000000
RightFoot -20.060440 -20.996508 15.677527
RightToeBase 25.912166 -0.000000 -0.000000
